<?xml version="1.0" encoding="iso-8859-1"?>
<!-- Uploaded to: SVG Repo, www.svgrepo.com, Generator: SVG Repo Mixer Tools -->
<svg fill="#ffffff" height="24px" width="24px" version="1.1" id="Layer_1" xmlns="http://www.w3.org/2000/svg" xmlns:xlink="http://www.w3.org/1999/xlink" 
	 viewBox="0 0 512 512" xml:space="preserve">
<g>
	<g>
		<path d="M448.399,290.739h-60.39v-14.118c19.775-5.387,38.081-15.503,53.385-29.762c6.708-6.251,12.664-13.131,17.813-20.513
			c4.601,2.265,9.659,3.466,14.848,3.466c18.566,0,33.67-15.105,33.67-33.67c0-15.866-10.817-29.294-26.039-32.794
			c0.006-0.088,0.016-0.174,0.022-0.262c0.023-0.309,0.025-0.615,0.013-0.917c5.571-7.155,8.902-16.136,8.902-25.885V76.426
			C490.622,34.285,456.337,0,414.196,0H294.48c-42.141,0-76.426,34.285-76.426,76.426v59.858c0,9.735,3.321,18.705,8.877,25.854
			c-0.001,0.214-0.001,0.429,0.014,0.646c0.014,0.189,0.033,0.376,0.048,0.564c-15.223,3.498-26.041,16.925-26.041,32.794
			c0,18.566,15.105,33.67,33.67,33.67c5.198,0,10.253-1.193,14.851-3.459c5.12,7.34,11.041,14.184,17.705,20.408
			c15.326,14.311,33.67,24.462,53.49,29.861v14.117c0,0-57.267,0.114-60.927,0.128v-26.316c0-4.427-3.588-8.017-8.017-8.017H12.292
			c-4.428,0-8.017,3.589-8.017,8.017v188.125c0,4.427,3.588,8.017,8.017,8.017h68.97c-0.005,0.179-0.027,0.354-0.027,0.534v25.654
			c0,13.851,11.268,25.119,25.119,25.119h51.307c13.851,0,25.119-11.268,25.119-25.119v-25.654c0-0.181-0.021-0.356-0.027-0.534
			h18.198v43.29c0,4.427,3.588,8.017,8.017,8.017h290.739c4.428,0,8.017-3.589,8.017-8.017v-94.063c0-4.427-3.588-8.017-8.017-8.017
			c-4.428,0-8.017,3.589-8.017,8.017v86.046H216.985v-35.273h34.739c4.428,0,8.017-3.589,8.017-8.017V306.899
			c3.039-0.01,8.605-0.02,18.171-0.033v60.299c0,6.569,7.864,10.388,13.026,6.259l38.179-30.543l20.776,13.851
			c2.664,1.775,6.229,1.776,8.893,0l20.776-13.851l38.179,30.543c5.16,4.127,13.026,0.311,13.026-6.259v-60.386l17.635-0.006
			c23.871,0,43.29,19.42,43.29,43.29v26.009c0,4.427,3.588,8.017,8.017,8.017c4.428,0,8.017-3.589,8.017-8.017v-26.009
			C507.724,317.351,481.112,290.739,448.399,290.739z M114.372,272.568h35.273v69.478h-35.273V272.568z M166.747,486.881
			c0,5.01-4.076,9.086-9.086,9.086h-51.307c-5.01,0-9.086-4.076-9.086-9.086v-25.654c0-0.295,0.241-0.534,0.534-0.534h4.81v17.637
			c0,4.427,3.588,8.017,8.017,8.017s8.017-3.589,8.017-8.017v-17.637h5.344v17.637c0,4.427,3.588,8.017,8.017,8.017
			s8.017-3.589,8.017-8.017v-17.637h5.344v17.637c0,4.427,3.588,8.017,8.017,8.017c4.428,0,8.017-3.589,8.017-8.017v-17.637h4.81
			c0.294,0,0.534,0.239,0.534,0.534V486.881z M243.708,444.66H20.309V272.568h78.029v77.495c0,4.427,3.588,8.017,8.017,8.017h51.307
			c4.428,0,8.017-3.589,8.017-8.017v-77.495h78.029V444.66z M320.668,329.107l-26.722,21.378v-43.635
			c7.427-0.006,16.256-0.014,26.722-0.021V329.107z M491.691,196.142c0,9.725-7.912,17.637-17.637,17.637
			c-2.238,0-4.43-0.426-6.476-1.235c5.455-10.426,9.448-21.585,11.844-33.198C486.663,181.629,491.691,188.312,491.691,196.142z
			 M234.088,76.426c0-33.3,27.092-60.393,60.392-60.393h119.716c33.3,0,60.393,27.092,60.393,60.393v43.29H234.088V76.426z
			 M234.622,213.779c-9.725,0-17.637-7.912-17.637-17.637c0-7.83,5.028-14.515,12.269-16.797
			c2.396,11.615,6.391,22.776,11.847,33.203C239.054,213.357,236.864,213.779,234.622,213.779z M234.088,136.284v-0.534h240.501
			v0.534c0,14.44-11.747,26.188-26.188,26.188H260.276C245.835,162.472,234.088,150.724,234.088,136.284z M371.975,328.67
			l-17.637,11.758l-17.637-11.758v-48.767c5.805,0.803,11.695,1.215,17.637,1.215s11.832-0.413,17.637-1.215V328.67z
			 M354.338,265.086c-53.483,0-99.11-38.323-109.482-89.509c4.78,1.882,9.979,2.929,15.42,2.929h188.125
			c5.442,0,10.641-1.046,15.421-2.929C453.443,226.747,407.775,265.086,354.338,265.086z M414.731,350.486l-26.722-21.378v-22.314
			l26.722-0.01V350.486z"/>
	</g>
</g>
<g>
	<g>
		<path d="M362.195,391.247c-0.617-3.226-3.275-5.755-6.489-6.32c-3.227-0.568-6.562,0.965-8.245,3.773
			c-1.778,2.965-1.408,6.862,0.889,9.442c2.251,2.528,5.931,3.362,9.058,2.074C360.886,398.781,362.953,394.95,362.195,391.247z"/>
	</g>
</g>
<g>
	<g>
		<path d="M362.195,425.452c-0.617-3.225-3.275-5.755-6.489-6.32c-3.224-0.567-6.564,0.967-8.245,3.773
			c-1.778,2.965-1.408,6.862,0.889,9.442c2.245,2.522,5.932,3.37,9.058,2.084C360.886,432.997,362.952,429.146,362.195,425.452z"/>
	</g>
</g>
<g>
	<g>
		<path d="M361.746,458.16c-1.271-3.021-4.315-5.028-7.605-4.944c-3.271,0.083-6.253,2.223-7.348,5.31
			c-1.121,3.164-0.127,6.764,2.463,8.896c2.687,2.214,6.634,2.406,9.529,0.476C361.952,465.785,363.147,461.672,361.746,458.16z"/>
	</g>
</g>
<g>
	<g>
		<path d="M363.958,222.33h-19.24c-4.428,0-8.017,3.589-8.017,8.017s3.588,8.017,8.017,8.017h19.24c4.428,0,8.017-3.589,8.017-8.017
			S368.387,222.33,363.958,222.33z"/>
	</g>
</g>
<g>
	<g>
		<path d="M303.031,179.307c-11.641,0-21.111,9.47-21.111,21.111c0,4.427,3.588,8.017,8.017,8.017s8.017-3.589,8.017-8.017
			c0-2.799,2.278-5.077,5.077-5.077s5.077,2.278,5.077,5.077c0,4.427,3.588,8.017,8.017,8.017c4.428,0,8.017-3.589,8.017-8.017
			C324.142,188.777,314.673,179.307,303.031,179.307z"/>
	</g>
</g>
<g>
	<g>
		<path d="M405.645,179.307c-11.641,0-21.111,9.47-21.111,21.111c0,4.427,3.588,8.017,8.017,8.017c4.428,0,8.017-3.589,8.017-8.017
			c0-2.799,2.278-5.077,5.077-5.077c2.799,0,5.077,2.278,5.077,5.077c0,4.427,3.588,8.017,8.017,8.017
			c4.428,0,8.017-3.589,8.017-8.017C426.756,188.777,417.286,179.307,405.645,179.307z"/>
	</g>
</g>
<g>
	<g>
		<path d="M456.952,384.802h-59.858c-4.428,0-8.017,3.589-8.017,8.017v38.48c0,20.924,17.022,37.946,37.946,37.946
			c20.924,0,37.946-17.022,37.946-37.946v-38.48C464.969,388.391,461.38,384.802,456.952,384.802z M448.935,431.299
			c0,12.083-9.83,21.912-21.912,21.912c-12.083,0-21.912-9.83-21.912-21.912v-30.463h43.825V431.299z"/>
	</g>
</g>
<g>
	<g>
		<path d="M354.338,34.205c-18.566,0-33.67,15.105-33.67,33.67s15.104,33.67,33.67,33.67s33.67-15.104,33.67-33.67
			S372.904,34.205,354.338,34.205z M354.338,85.511c-9.725,0-17.637-7.912-17.637-17.637s7.912-17.637,17.637-17.637
			s17.637,7.912,17.637,17.637S364.063,85.511,354.338,85.511z"/>
	</g>
</g>
<g>
	<g>
		<path d="M431.299,34.205h-34.205c-4.428,0-8.017,3.589-8.017,8.017c0,4.427,3.588,8.017,8.017,8.017h34.205
			c4.428,0,8.017-3.589,8.017-8.017C439.315,37.794,435.727,34.205,431.299,34.205z"/>
	</g>
</g>
<g>
	<g>
		<path d="M414.196,59.858h-17.102c-4.428,0-8.017,3.589-8.017,8.017s3.588,8.017,8.017,8.017h17.102
			c4.428,0,8.017-3.589,8.017-8.017S418.625,59.858,414.196,59.858z"/>
	</g>
</g>
<g>
	<g>
		<path d="M405.645,85.511h-8.551c-4.428,0-8.017,3.589-8.017,8.017s3.588,8.017,8.017,8.017h8.551c4.428,0,8.017-3.589,8.017-8.017
			S410.074,85.511,405.645,85.511z"/>
	</g>
</g>
<g>
	<g>
		<path d="M311.582,34.205h-34.205c-4.428,0-8.017,3.589-8.017,8.017c0,4.427,3.588,8.017,8.017,8.017h34.205
			c4.428,0,8.017-3.589,8.017-8.017C319.599,37.794,316.011,34.205,311.582,34.205z"/>
	</g>
</g>
<g>
	<g>
		<path d="M311.582,59.858H294.48c-4.428,0-8.017,3.589-8.017,8.017s3.588,8.017,8.017,8.017h17.102
			c4.428,0,8.017-3.589,8.017-8.017S316.011,59.858,311.582,59.858z"/>
	</g>
</g>
<g>
	<g>
		<path d="M311.582,85.511h-8.551c-4.428,0-8.017,3.589-8.017,8.017s3.588,8.017,8.017,8.017h8.551c4.428,0,8.017-3.589,8.017-8.017
			S316.011,85.511,311.582,85.511z"/>
	</g>
</g>
<g>
	<g>
		<path d="M55.048,376.251c-4.428,0-8.017,3.589-8.017,8.017v17.102c0,4.427,3.588,8.017,8.017,8.017
			c4.428,0,8.017-3.589,8.017-8.017v-17.102C63.065,379.84,59.476,376.251,55.048,376.251z"/>
	</g>
</g>
<g>
	<g>
		<path d="M80.701,376.251c-4.428,0-8.017,3.589-8.017,8.017v17.102c0,4.427,3.588,8.017,8.017,8.017
			c4.428,0,8.017-3.589,8.017-8.017v-17.102C88.718,379.84,85.13,376.251,80.701,376.251z"/>
	</g>
</g>
<g>
	<g>
		<path d="M123.457,376.251c-4.428,0-8.017,3.589-8.017,8.017v17.102c0,4.427,3.588,8.017,8.017,8.017s8.017-3.589,8.017-8.017
			v-17.102C131.474,379.84,127.886,376.251,123.457,376.251z"/>
	</g>
</g>
<g>
	<g>
		<path d="M149.111,376.251c-4.428,0-8.017,3.589-8.017,8.017v17.102c0,4.427,3.588,8.017,8.017,8.017
			c4.428,0,8.017-3.589,8.017-8.017v-17.102C157.127,379.84,153.539,376.251,149.111,376.251z"/>
	</g>
</g>
<g>
	<g>
		<path d="M174.764,376.251c-4.428,0-8.017,3.589-8.017,8.017v17.102c0,4.427,3.588,8.017,8.017,8.017s8.017-3.589,8.017-8.017
			v-17.102C182.781,379.84,179.193,376.251,174.764,376.251z"/>
	</g>
</g>
<g>
	<g>
		<path d="M208.969,376.251c-4.428,0-8.017,3.589-8.017,8.017v17.102c0,4.427,3.588,8.017,8.017,8.017s8.017-3.589,8.017-8.017
			v-17.102C216.985,379.84,213.397,376.251,208.969,376.251z"/>
	</g>
</g>
<g>
	<g>
		<path d="M231.739,327.292l-17.102-17.102c-3.132-3.131-8.207-3.131-11.338,0l-17.102,17.102c-3.131,3.131-3.131,8.207,0,11.337
			c3.132,3.131,8.207,3.131,11.339,0l3.416-3.416v14.85c0,4.427,3.588,8.017,8.017,8.017s8.017-3.589,8.017-8.017v-14.85
			l3.416,3.416c3.089,3.088,8.249,3.088,11.338,0C234.87,335.498,234.87,330.422,231.739,327.292z"/>
	</g>
</g>
<g>
	<g>
		<path d="M77.82,327.292L60.717,310.19c-3.132-3.131-8.207-3.131-11.338,0l-17.102,17.102c-3.131,3.131-3.131,8.207,0,11.337
			c3.132,3.131,8.207,3.131,11.338,0l3.416-3.416v14.85c0,4.427,3.588,8.017,8.017,8.017c4.428,0,8.017-3.589,8.017-8.017v-14.85
			l3.416,3.416c3.089,3.088,8.249,3.088,11.338,0C80.949,335.499,80.949,330.422,77.82,327.292z"/>
	</g>
</g>
</svg>